<?xml version="1.0" encoding="utf-8"?>
<!-- Generator: Adobe Illustrator 27.4.0, SVG Export Plug-In . SVG Version: 6.00 Build 0)  -->
<svg version="1.1" id="Laag_1" xmlns="http://www.w3.org/2000/svg" xmlns:xlink="http://www.w3.org/1999/xlink" x="0px" y="0px"
	 viewBox="0 0 130.75 154.94" style="enable-background:new 0 0 130.75 154.94;" xml:space="preserve">
<style type="text/css">
	.st0{fill:#070000;}
</style>
<path class="st0" d="M104.58,152.48c-5.03,0-9.88-0.03-14.73,0.03c-1.14,0.01-1.7-0.35-2.14-1.41
	c-8.06-19.4-16.16-38.79-24.25-58.18c-0.13-0.3-0.21-0.63-0.41-1.25c4.02-0.09,7.88-0.23,11.74-0.21c0.42,0,1,0.81,1.23,1.36
	c4.63,11.37,9.23,22.76,13.81,34.16c1.05,2.6,2,5.24,3.07,8.07c-0.31-33-0.62-65.77-0.94-98.98c2.7,0.34,5.09,0.5,7.43,0.96
	c5.24,1.02,5.17,1.08,5.16,6.36c-0.04,35.73-0.05,71.45-0.07,107.18C104.49,151.17,104.55,151.78,104.58,152.48z"/>
<path class="st0" d="M39.84,34.81c-8.08,0-16.01,0-24.03,0c0,14.9,0,29.61,0,44.42c2.03,0,4.08,0,6.36,0c0,3.73,0,7.36,0,11.12
	c-1.99,0-4.09,0-6.44,0c0,15.42,0,30.72,0,45.87c-4.18,0-8.11,0-12.16,0c0-37.54,0-74.86,0-112.39c0.64-0.04,1.29-0.11,1.94-0.11
	c9.2-0.03,18.41,0.17,27.59-0.2c2.42-0.1,2.77,0.98,3.39,2.49c1.03,2.5,2.07,4.99,3.09,7.49C39.73,33.84,39.74,34.23,39.84,34.81z"
	/>
<path class="st0" d="M35.83,152.42c-3.71,0-7.37-0.02-11.03,0.01c-1.18,0.01-1.35-0.57-1.34-1.59c0.02-18.17,0-36.33,0-54.5
	c0-19.24,0-38.47,0-57.71c0-0.89,0-1.78,0-2.68c3.93,0,7.84,0,11.82,0C35.45,74.76,35.64,113.65,35.83,152.42z"/>
<path class="st0" d="M49.73,23.7c2.07,0,3.92,0,5.77,0c12.75,0,25.51-0.18,38.26,0.1c4.62,0.1,9.41,0.73,13.78,2.17
	c5.38,1.76,10.05,5.05,13.09,10.16c3.29,5.52,4.76,11.48,4.86,17.88c0.11,6.98-0.22,13.85-3,20.4c-2.42,5.7-6.45,9.84-11.91,12.63
	c-1.52,0.78-3.13,1.38-4.83,2.12c0-4.31-0.02-8.29,0.02-12.28c0-0.4,0.23-0.96,0.54-1.16c3.82-2.48,4.98-6.44,5.71-10.53
	c1.09-6.09,1.28-12.2-0.42-18.26c-1.84-6.57-6.16-10.32-12.85-11.24c-3.73-0.51-7.5-0.97-11.26-1.01
	c-10.27-0.12-20.54-0.11-30.81,0.08c-2.07,0.04-2.96-0.37-3.57-2.36C52.23,29.52,50.95,26.75,49.73,23.7z"/>
<path class="st0" d="M34.64,19.16c0,1.13,0,2.26,0,3.28c-3.48,0-6.79,0.04-10.11-0.05c-0.39-0.01-1.09-0.77-1.09-1.19
	c-0.05-5.81,0.01-11.62,0-17.43c0-1.14,0.48-1.43,1.54-1.42c4.57,0.04,9.15,0.05,13.72-0.01c1.14-0.02,1.69,0.33,2.11,1.41
	c3.28,8.45,6.62,16.88,9.96,25.3c5.51,13.87,11.05,27.72,16.58,41.58c0.89,2.23,1.74,4.48,2.69,6.92c-2.88,0.13-5.5,0.24-8.11,0.37
	c-4.63,0.22-4.65,0.23-6.29-4.07C50.63,60.7,45.62,47.54,40.63,34.38c-1.79-4.73-3.52-9.5-5.28-14.24
	c-0.13-0.35-0.29-0.69-0.44-1.03C34.82,19.12,34.73,19.14,34.64,19.16z"/>
<path class="st0" d="M36.62,90.14c0-3.59,0-7.11,0-11.07c18.25,0,36.36,0,54.45,0c0,3.48,0,7.22,0,11.07
	C72.91,90.14,54.84,90.14,36.62,90.14z"/>
<path class="st0" d="M104.51,23.72c-3.92-0.43-7.88-0.84-11.82-1.33c-0.28-0.03-0.7-0.67-0.69-1.03c0.03-5.58,0.13-11.16,0.17-16.74
	c0.02-2.26-0.02-2.26,2.16-2.26c2.88,0,5.76,0.05,8.63-0.02c1.21-0.03,1.54,0.4,1.53,1.56c-0.04,4.51,0.01,9.02,0.02,13.54
	C104.51,19.52,104.51,21.59,104.51,23.72z"/>
</svg>
